<svg width="400" height="200" viewBox="0 0 400 200" fill="none" xmlns="http://www.w3.org/2000/svg">
  <rect width="400" height="200" fill="url(#paint0_linear)" />
  
  <!-- Abstract code/development patterns -->
  <path d="M50 50 L80 50 L80 80 L50 80 Z" stroke="#ffffff" stroke-opacity="0.2" stroke-width="2" />
  <path d="M100 70 L130 70 L130 100 L100 100 Z" stroke="#ffffff" stroke-opacity="0.15" stroke-width="2" />
  <path d="M150 50 L180 50 L180 80 L150 80 Z" stroke="#ffffff" stroke-opacity="0.2" stroke-width="2" />
  <path d="M200 70 L230 70 L230 100 L200 100 Z" stroke="#ffffff" stroke-opacity="0.15" stroke-width="2" />
  <path d="M250 50 L280 50 L280 80 L250 80 Z" stroke="#ffffff" stroke-opacity="0.2" stroke-width="2" />
  <path d="M300 70 L330 70 L330 100 L300 100 Z" stroke="#ffffff" stroke-opacity="0.15" stroke-width="2" />
  
  <!-- Connection lines -->
  <line x1="80" y1="65" x2="100" y2="85" stroke="#ffffff" stroke-opacity="0.1" stroke-width="1" />
  <line x1="130" y1="85" x2="150" y2="65" stroke="#ffffff" stroke-opacity="0.1" stroke-width="1" />
  <line x1="180" y1="65" x2="200" y2="85" stroke="#ffffff" stroke-opacity="0.1" stroke-width="1" />
  <line x1="230" y1="85" x2="250" y2="65" stroke="#ffffff" stroke-opacity="0.1" stroke-width="1" />
  <line x1="280" y1="65" x2="300" y2="85" stroke="#ffffff" stroke-opacity="0.1" stroke-width="1" />
  
  <!-- Worldcoin stylized element -->
  <circle cx="200" cy="140" r="30" stroke="#ffffff" stroke-opacity="0.3" stroke-width="2" />
  <circle cx="200" cy="140" r="20" stroke="#ffffff" stroke-opacity="0.2" stroke-width="1.5" />
  <circle cx="200" cy="140" r="10" stroke="#ffffff" stroke-opacity="0.4" stroke-width="1" />
  
  <!-- Gradient definition -->
  <defs>
    <linearGradient id="paint0_linear" x1="0" y1="0" x2="400" y2="200" gradientUnits="userSpaceOnUse">
      <stop offset="0" stop-color="#4F46E5" />
      <stop offset="1" stop-color="#7C3AED" />
    </linearGradient>
  </defs>
</svg> 